<svg width="49" height="34" viewBox="0 0 49 34" fill="none" xmlns="http://www.w3.org/2000/svg">
    <path fill-rule="evenodd" clip-rule="evenodd"
          d="M32.4616 34C29.1679 34 25.9483 33.0028 23.2098 31.1344C20.4713 29.2661 18.3371 26.6106 17.077 23.5038C16.4868 22.0485 16.1008 20.5249 15.9233 18.9773H1.92902C1.41741 18.9773 0.926758 18.7698 0.565 18.4005C0.203237 18.0311 0 17.5302 0 17.0079C0 16.4856 0.203237 15.9846 0.565 15.6153C0.926758 15.246 1.41741 15.0385 1.92902 15.0385H15.9215C15.9731 14.5843 16.0429 14.1313 16.1308 13.6806C16.7739 10.3827 18.3606 7.35358 20.6901 4.97641C23.0196 2.59923 25.9873 0.980754 29.2178 0.325698C32.4484 -0.329359 35.7966 0.00841675 38.8391 1.29632C41.8816 2.58422 44.4817 4.76437 46.3104 7.56105C48.1901 10.4356 49.003 13.6121 49 17.0079C49 20.6577 47.4168 25.7656 44.2286 29.019C41.107 32.2045 36.8752 33.9958 32.4616 34ZM20.0004 18.9773C20.0293 19.1706 20.0625 19.3636 20.1 19.556C20.2303 20.2248 20.4111 20.8792 20.6396 21.5139H44.6553C44.9507 20.6932 45.1651 19.8434 45.2945 18.9773H20.0004ZM43.9693 23.0894C43.762 23.4917 43.5336 23.8839 43.2847 24.2643C41.8789 26.4121 39.8809 28.0862 37.5432 29.0748C35.2056 30.0634 32.6333 30.322 30.1516 29.8181C27.67 29.3141 25.3904 28.0701 23.6012 26.2435C22.6867 25.3098 21.9213 24.2454 21.3256 23.0894H43.9693ZM20.6283 12.5333C20.3373 13.3482 20.1276 14.1874 20.0004 15.0384H45.2923C45.1634 14.1813 44.9517 13.3423 44.662 12.5333H20.6283ZM25.5399 6.1479C23.7523 7.36737 22.2997 9.02342 21.3094 10.9578H43.9794C43.3835 9.79569 42.6144 8.72142 41.6891 7.77683C39.2908 5.32829 36.0392 3.95086 32.6475 3.94669C30.1172 3.94669 27.6437 4.71271 25.5399 6.1479Z"
          fill="url(#paint0_linear_693_315)"/>
    <defs>
        <linearGradient id="paint0_linear_693_315" x1="24.5" y1="2.4363" x2="45.5458" y2="11.0794"
                        gradientUnits="userSpaceOnUse">
            <stop stop-color="#EAB79C"/>
            <stop offset="1" stop-color="#D6A3C7"/>
        </linearGradient>
    </defs>
</svg>
